<svg id="Checkbox_-_ios" data-name="Checkbox - ios" xmlns="http://www.w3.org/2000/svg" width="24" height="24" viewBox="0 0 24 24">
  <g id="Icon_ionic-ios-checkbox-outline" data-name="Icon ionic-ios-checkbox-outline" transform="translate(-2.5 -2.5)">
    <path id="Path_1" data-name="Path 1" d="M22.833,4.5H6.167A1.665,1.665,0,0,0,4.5,6.167V22.833A1.665,1.665,0,0,0,6.167,24.5H22.833A1.665,1.665,0,0,0,24.5,22.833V6.167A1.665,1.665,0,0,0,22.833,4.5Zm.208,18.125a.418.418,0,0,1-.417.417H6.375a.418.418,0,0,1-.417-.417V6.375a.418.418,0,0,1,.417-.417h16.25a.418.418,0,0,1,.417.417Z" fill="#007aff"/>
  </g>
  <rect id="Rectangle_11" data-name="Rectangle 11" width="24" height="24" fill="none" opacity="0"/>
</svg>
