<svg xmlns="http://www.w3.org/2000/svg" width="57.799" height="58.095" viewBox="0 0 57.799 58.095">
  <g id="Polygon_1" data-name="Polygon 1" transform="translate(27.791) rotate(47)" fill="none">
    <path d="M20.269,2.99a2,2,0,0,1,3.462,0L42.262,35a2,2,0,0,1-1.731,3H3.469a2,2,0,0,1-1.731-3Z" stroke="none"/>
    <path d="M 21.99999237060547 3.991722106933594 L 3.468891143798828 36.00000381469727 L 40.53110122680664 36.00000381469727 C 40.53110504150391 36.00000381469727 40.53110885620117 36.00000381469727 40.53111267089844 36.00000381469727 L 22.00000190734863 3.991733551025391 C 22 3.991729736328125 21.99999237060547 3.991729736328125 21.99999237060547 3.991722106933594 M 21.99999618530273 1.991725921630859 C 22.67284202575684 1.991725921630859 23.3456859588623 2.324367523193359 23.7308521270752 2.989650726318359 L 42.261962890625 34.99793243408203 C 43.03389358520508 36.33126068115234 42.07177352905273 38.00000381469727 40.53110122680664 38.00000381469727 L 3.468891143798828 38.00000381469727 C 1.928230285644531 38.00000381469727 0.9661102294921875 36.33126068115234 1.738040924072266 34.99793243408203 L 20.26914215087891 2.989650726318359 C 20.65430641174316 2.324367523193359 21.32715225219727 1.991725921630859 21.99999618530273 1.991725921630859 Z" stroke="none" fill="#007aff"/>
  </g>
</svg>
